<svg width="22" height="21" viewBox="0 0 22 21" fill="none" xmlns="http://www.w3.org/2000/svg">
<mask id="path-1-inside-1_31_349" fill="white">
<path d="M9.75 8.3125C9.75 8.13991 9.88991 8 10.0625 8C10.2351 8 10.375 8.13991 10.375 8.3125V14.5625C10.375 14.7351 10.2351 14.875 10.0625 14.875C9.88991 14.875 9.75 14.7351 9.75 14.5625V8.3125Z"/>
<path d="M11.625 8.3125C11.625 8.13991 11.7649 8 11.9375 8C12.1101 8 12.25 8.13991 12.25 8.3125V14.5625C12.25 14.7351 12.1101 14.875 11.9375 14.875C11.7649 14.875 11.625 14.7351 11.625 14.5625V8.3125Z"/>
</mask>
<path d="M9.75 8.3125C9.75 8.13991 9.88991 8 10.0625 8C10.2351 8 10.375 8.13991 10.375 8.3125V14.5625C10.375 14.7351 10.2351 14.875 10.0625 14.875C9.88991 14.875 9.75 14.7351 9.75 14.5625V8.3125Z" fill="#F1F1F1"/>
<path d="M11.625 8.3125C11.625 8.13991 11.7649 8 11.9375 8C12.1101 8 12.25 8.13991 12.25 8.3125V14.5625C12.25 14.7351 12.1101 14.875 11.9375 14.875C11.7649 14.875 11.625 14.7351 11.625 14.5625V8.3125Z" fill="#F1F1F1"/>
<path d="M10.75 8.3125C10.75 8.6922 10.4422 9 10.0625 9V7C9.33763 7 8.75 7.58763 8.75 8.3125H10.75ZM10.0625 9C9.6828 9 9.375 8.6922 9.375 8.3125H11.375C11.375 7.58763 10.7874 7 10.0625 7V9ZM9.375 8.3125V14.5625H11.375V8.3125H9.375ZM9.375 14.5625C9.375 14.1828 9.6828 13.875 10.0625 13.875V15.875C10.7874 15.875 11.375 15.2874 11.375 14.5625H9.375ZM10.0625 13.875C10.4422 13.875 10.75 14.1828 10.75 14.5625H8.75C8.75 15.2874 9.33763 15.875 10.0625 15.875V13.875ZM10.75 14.5625V8.3125H8.75V14.5625H10.75ZM12.625 8.3125C12.625 8.6922 12.3172 9 11.9375 9V7C11.2126 7 10.625 7.58763 10.625 8.3125H12.625ZM11.9375 9C11.5578 9 11.25 8.6922 11.25 8.3125H13.25C13.25 7.58763 12.6624 7 11.9375 7V9ZM11.25 8.3125V14.5625H13.25V8.3125H11.25ZM11.25 14.5625C11.25 14.1828 11.5578 13.875 11.9375 13.875V15.875C12.6624 15.875 13.25 15.2874 13.25 14.5625H11.25ZM11.9375 13.875C12.3172 13.875 12.625 14.1828 12.625 14.5625H10.625C10.625 15.2874 11.2126 15.875 11.9375 15.875V13.875ZM12.625 14.5625V8.3125H10.625V14.5625H12.625Z" fill="#F1F1F1" mask="url(#path-1-inside-1_31_349)"/>
<path d="M8.5 18.3125H13.5M8.5 17.0625H13.5M4.125 7.54208C4.125 3.82544 7.20304 0.8125 11 0.8125C14.797 0.8125 17.875 3.82544 17.875 7.54208C17.875 9.73778 16.8007 11.6879 15.1386 12.9162C14.8212 13.1508 14.5959 13.4969 14.5583 13.8897L14.4229 14.6815C14.3615 15.3228 13.8228 15.8125 13.1785 15.8125H8.82147C8.1772 15.8125 7.63846 15.3228 7.57714 14.6815L7.44169 13.8897C7.40413 13.4969 7.17879 13.1508 6.86143 12.9162C5.19929 11.6879 4.125 9.73778 4.125 7.54208Z" stroke="#F1F1F1" stroke-linecap="round"/>
<path d="M11 20.1875C11.3452 20.1875 11.625 19.9077 11.625 19.5625H10.375C10.375 19.9077 10.6548 20.1875 11 20.1875Z" fill="#F1F1F1"/>
<path d="M16.9375 12.6875L20.6875 13.9375M15.6875 13.9375L20.6875 18.3125M5.0625 12.6875L1.3125 13.9375M6.3125 13.9375L1.3125 18.3125M11.625 19.5625C11.625 19.9077 11.3452 20.1875 11 20.1875C10.6548 20.1875 10.375 19.9077 10.375 19.5625H11.625Z" stroke="#F1F1F1" stroke-linecap="round" stroke-linejoin="round"/>
</svg>
