<svg width="26" height="25" viewBox="0 0 26 25" fill="none" xmlns="http://www.w3.org/2000/svg">
<path d="M5.22461 14.1552C5.22461 13.9743 5.37127 13.8276 5.5522 13.8276H20.4487C20.6297 13.8276 20.7763 13.9743 20.7763 14.1552C20.7763 14.3361 20.6297 14.4828 20.4487 14.4828H5.5522C5.37127 14.4828 5.22461 14.3361 5.22461 14.1552ZM5.22461 16.638C5.22461 16.4571 5.37127 16.3104 5.5522 16.3104H20.4487C20.6297 16.3104 20.7763 16.4571 20.7763 16.638C20.7763 16.8189 20.6297 16.9656 20.4487 16.9656H5.5522C5.37127 16.9656 5.22461 16.8189 5.22461 16.638Z" fill="#F1F1F1" stroke="#F1F1F1"/>
<path d="M22.5172 22.4402V10.992C22.5172 10.1642 21.856 9.4931 21.0403 9.4931H19.2069M22.5172 22.4402H3.48276M22.5172 22.4402H24.6308C24.8347 22.4402 25 22.608 25 22.8149V23.0011C25 23.8289 24.3388 24.5 23.5231 24.5H2.47692C1.66124 24.5 1 23.8289 1 23.0011V22.8149C1 22.608 1.16531 22.4402 1.36923 22.4402H3.48276M3.48276 22.4402V12.8655V12.4908M13.1846 3.4977C14.0003 3.4977 14.6615 2.82664 14.6615 1.99885C14.6615 1.17106 14.0003 0.5 13.1846 0.5C12.3689 0.5 11.7077 1.17106 11.7077 1.99885C11.7077 2.82664 12.3689 3.4977 13.1846 3.4977ZM13.1846 3.4977V5.9939C13.1846 6.61621 12.6801 7.12069 12.0578 7.12069V7.12069C11.4355 7.12069 10.931 7.62517 10.931 8.24748V9.4931M23.5231 3.4977C24.3388 3.4977 25 2.82664 25 1.99885C25 1.17106 24.3388 0.5 23.5231 0.5C22.7074 0.5 22.0462 1.17106 22.0462 1.99885C22.0462 2.82664 22.7074 3.4977 23.5231 3.4977ZM23.5231 3.4977V5.8008C23.5231 6.07269 23.7435 6.2931 24.0154 6.2931V6.2931C24.5592 6.2931 25 6.73393 25 7.27772V15.0517C25 16.1563 24.1046 17.0517 23 17.0517H22.6369M18.3538 3.4977C19.1695 3.4977 19.8308 2.82664 19.8308 1.99885C19.8308 1.17106 19.1695 0.5 18.3538 0.5C17.5382 0.5 16.8769 1.17106 16.8769 1.99885C16.8769 2.82664 17.5382 3.4977 18.3538 3.4977ZM18.3538 3.4977V4.65066C18.3538 5.10069 17.989 5.46552 17.539 5.46552V5.46552C17.089 5.46552 16.7241 5.83666 16.7241 6.28669V6.28669C16.7241 6.74375 17.0947 7.12069 17.5517 7.12069H17.9266C18.5607 7.12069 19.0858 7.61308 19.1266 8.24587L19.2069 9.4931M8.01538 3.4977C8.83107 3.4977 9.49231 2.82664 9.49231 1.99885C9.49231 1.17106 8.83107 0.5 8.01538 0.5C7.1997 0.5 6.53846 1.17106 6.53846 1.99885C6.53846 2.82664 7.1997 3.4977 8.01538 3.4977ZM8.01538 3.4977V4.85438C8.01538 5.1919 7.74177 5.46552 7.40424 5.46552V5.46552C7.06672 5.46552 6.7931 5.73913 6.7931 6.07666V9.4931M2.84615 3.4977C3.66184 3.4977 4.32308 2.82664 4.32308 1.99885C4.32308 1.17106 3.66184 0.5 2.84615 0.5C2.03047 0.5 1.36923 1.17106 1.36923 1.99885C1.36923 2.82664 2.03047 3.4977 2.84615 3.4977ZM2.84615 3.4977V6.19761C2.84615 6.70741 2.43288 7.12069 1.92308 7.12069V7.12069C1.41328 7.12069 1 7.53397 1 8.04377V10.4908C1 11.5954 1.89543 12.4908 3 12.4908H3.48276M10.931 9.4931H6.7931M10.931 9.4931H19.2069M6.7931 9.4931H4.95968C4.144 9.4931 3.48276 10.1642 3.48276 10.992V12.4908" stroke="#F1F1F1"/>
</svg>

