<svg width="20" height="21" viewBox="0 0 20 21" fill="none" xmlns="http://www.w3.org/2000/svg">
<path d="M1.17599 11.6082C1.27818 12.4298 1.49253 13.2169 1.80324 13.9534C2.16206 14.804 3.16652 15.0222 3.88912 14.605C4.13769 14.4615 4.51396 14.5278 4.75981 14.8253C5.03477 15.1579 5.3408 15.464 5.67348 15.7389C5.97098 15.9848 6.03728 16.361 5.89377 16.6096C5.47656 17.3322 5.69482 18.3367 6.54538 18.6954C7.28184 19.0061 8.06886 19.2204 8.89041 19.3226C9.80548 19.4364 10.4984 18.6782 10.4984 17.8422C10.4984 17.5557 10.7433 17.264 11.1248 17.2003C11.5558 17.1283 11.9732 17.0157 12.3727 16.8667C12.7357 16.7313 13.0939 16.8617 13.237 17.1095C13.6551 17.8336 14.6348 18.1436 15.3698 17.5856C16.0161 17.0949 16.5931 16.5178 17.0838 15.8715C17.6418 15.1366 17.3318 14.1568 16.6077 13.7388C16.3599 13.5957 16.2295 13.2374 16.3649 12.8745C16.5139 12.4749 16.6265 12.0576 16.6984 11.6267C16.7621 11.2452 17.0539 11.0002 17.3403 11.0002C18.1764 11.0002 18.9346 10.3073 18.8208 9.39224C18.7186 8.57079 18.5043 7.78386 18.1937 7.04747C17.835 6.19689 16.8305 5.97857 16.1079 6.3958C15.8593 6.5393 15.4831 6.473 15.2372 6.17547C14.9622 5.84267 14.6561 5.53654 14.3233 5.26151C14.0258 5.01565 13.9595 4.63939 14.103 4.39083C14.5202 3.6682 14.3019 2.66376 13.4514 2.30497C12.7149 1.99431 11.9279 1.78 11.1063 1.67782C10.1913 1.564 9.49837 2.32223 9.49837 3.15825C9.49837 3.44467 9.25342 3.73644 8.8719 3.80015C8.441 3.8721 8.02372 3.98463 7.62421 4.13367C7.26126 4.26907 6.90297 4.13863 6.75988 3.89079C6.34183 3.16671 5.36207 2.85676 4.62714 3.4147C3.98076 3.90541 3.40364 4.48252 2.91293 5.12889C2.35498 5.86382 2.66492 6.84358 3.389 7.26163L3.639 6.82862L3.389 7.26163C3.63683 7.40472 3.76728 7.76301 3.63187 8.12595C3.48281 8.52549 3.37028 8.94279 3.29832 9.37373C3.23461 9.75525 2.94284 10.0002 2.65642 10.0002C1.82039 10.0002 1.06217 10.6931 1.17599 11.6082Z" stroke="#F1F1F1" stroke-linecap="round" stroke-linejoin="round"/>
<path d="M13.7853 10.4999C13.7853 12.5907 12.0904 14.2857 9.99958 14.2857C7.90879 14.2857 6.21387 12.5907 6.21387 10.4999C6.21387 8.40916 7.90879 6.71423 9.99958 6.71423C12.0904 6.71423 13.7853 8.40916 13.7853 10.4999Z" stroke="#F1F1F1" stroke-linecap="round" stroke-linejoin="round"/>
</svg>
