<svg width="24" height="25" viewBox="0 0 24 25" fill="none" xmlns="http://www.w3.org/2000/svg">
<path d="M10.75 7.93333C10.75 10.3818 8.79125 12.3667 6.375 12.3667C3.95875 12.3667 2 10.3818 2 7.93333C2 5.48487 3.95875 3.5 6.375 3.5C8.79125 3.5 10.75 5.48487 10.75 7.93333Z" fill="#1E2327"/>
<path d="M22 18.0667C22 20.5151 20.0412 22.5 17.625 22.5C15.2088 22.5 13.25 20.5151 13.25 18.0667C13.25 15.6182 15.2088 13.6333 17.625 13.6333C20.0412 13.6333 22 15.6182 22 18.0667Z" fill="#1E2327"/>
<path d="M10.75 7.93333C10.75 10.3818 8.79125 12.3667 6.375 12.3667C3.95875 12.3667 2 10.3818 2 7.93333C2 5.48487 3.95875 3.5 6.375 3.5C8.79125 3.5 10.75 5.48487 10.75 7.93333Z" stroke="#F1F1F1"/>
<path d="M22 18.0667C22 20.5151 20.0412 22.5 17.625 22.5C15.2088 22.5 13.25 20.5151 13.25 18.0667C13.25 15.6182 15.2088 13.6333 17.625 13.6333C20.0412 13.6333 22 15.6182 22 18.0667Z" stroke="#F1F1F1"/>
<path d="M9 8.57692C9 9.93639 7.92548 11.0385 6.6 11.0385C5.27452 11.0385 4.2 9.93639 4.2 8.57692C4.2 7.21745 5.27452 6.11538 6.6 6.11538C7.92548 6.11538 9 7.21745 9 8.57692Z" fill="#1E2327"/>
<path d="M19.8 18.4231C19.8 19.7825 18.7255 20.8846 17.4 20.8846C16.0745 20.8846 15 19.7825 15 18.4231C15 17.0636 16.0745 15.9615 17.4 15.9615C18.7255 15.9615 19.8 17.0636 19.8 18.4231Z" fill="#1E2327"/>
<path d="M12 22C12.2761 22 12.5 21.7761 12.5 21.5C12.5 21.2239 12.2761 21 12 21V22ZM4.2 13.5L4.558 13.151C4.45194 13.0422 4.30218 12.9875 4.15099 13.0024C3.9998 13.0173 3.86358 13.1001 3.78078 13.2275L4.2 13.5ZM12 5C11.7239 5 11.5 5.22386 11.5 5.5C11.5 5.77614 11.7239 6 12 6V5ZM19.8 13.5L19.442 13.8491C19.5481 13.9578 19.6978 14.0125 19.849 13.9976C20.0002 13.9827 20.1364 13.8999 20.2192 13.7725L19.8 13.5ZM2.58078 15.0737C2.43028 15.3052 2.49598 15.6149 2.72751 15.7654C2.95904 15.9159 3.26873 15.8502 3.41922 15.6186L2.58078 15.0737ZM5.342 15.3875C5.53478 15.5852 5.85133 15.5892 6.04905 15.3965C6.24677 15.2037 6.25078 14.8871 6.058 14.6894L5.342 15.3875ZM18.658 11.6125C18.4652 11.4148 18.1487 11.4108 17.951 11.6035C17.7532 11.7963 17.7492 12.1129 17.942 12.3106L18.658 11.6125ZM21.4192 11.9263C21.5697 11.6948 21.504 11.3851 21.2725 11.2346C21.041 11.0841 20.7313 11.1498 20.5808 11.3814L21.4192 11.9263ZM8.5 8.57692C8.5 9.67226 7.63748 10.5385 6.6 10.5385V11.5385C8.21348 11.5385 9.5 10.2005 9.5 8.57692H8.5ZM6.6 10.5385C5.56252 10.5385 4.7 9.67226 4.7 8.57692H3.7C3.7 10.2005 4.98652 11.5385 6.6 11.5385V10.5385ZM4.7 8.57692C4.7 7.48159 5.56252 6.61538 6.6 6.61538V5.61538C4.98652 5.61538 3.7 6.95332 3.7 8.57692H4.7ZM6.6 6.61538C7.63748 6.61538 8.5 7.48159 8.5 8.57692H9.5C9.5 6.95332 8.21348 5.61538 6.6 5.61538V6.61538ZM19.3 18.4231C19.3 19.5184 18.4375 20.3846 17.4 20.3846V21.3846C19.0135 21.3846 20.3 20.0467 20.3 18.4231H19.3ZM17.4 20.3846C16.3625 20.3846 15.5 19.5184 15.5 18.4231H14.5C14.5 20.0467 15.7865 21.3846 17.4 21.3846V20.3846ZM15.5 18.4231C15.5 17.3277 16.3625 16.4615 17.4 16.4615V15.4615C15.7865 15.4615 14.5 16.7995 14.5 18.4231H15.5ZM17.4 16.4615C18.4375 16.4615 19.3 17.3277 19.3 18.4231H20.3C20.3 16.7995 19.0135 15.4615 17.4 15.4615V16.4615ZM12 21C7.98018 21 4.7 17.6541 4.7 13.5H3.7C3.7 18.1824 7.40418 22 12 22V21ZM12 6C16.0198 6 19.3 9.34586 19.3 13.5H20.3C20.3 8.81759 16.5958 5 12 5V6ZM3.78078 13.2275L2.58078 15.0737L3.41922 15.6186L4.61922 13.7725L3.78078 13.2275ZM3.842 13.8491L5.342 15.3875L6.058 14.6894L4.558 13.151L3.842 13.8491ZM20.158 13.151L18.658 11.6125L17.942 12.3106L19.442 13.8491L20.158 13.151ZM20.2192 13.7725L21.4192 11.9263L20.5808 11.3814L19.3808 13.2275L20.2192 13.7725Z" fill="#F1F1F1"/>
</svg>

