<svg width="53" height="52" viewBox="0 0 53 52" fill="none" xmlns="http://www.w3.org/2000/svg">
<path d="M33.5282 31.8159C35.7244 29.9767 37.009 27.4922 37.4966 25.9112C41.3368 25.9112 41.5929 18.4407 38.5207 18.4407C38.5207 18.4407 38.6693 17.4185 38.7245 15.8436V13.5056M33.5282 31.8159C31.8811 33.1953 29.7211 34.2117 27 34.2117C20.6508 34.2117 17.3568 28.678 16.5034 25.9112C12.6632 25.9112 12.4071 18.4407 15.4793 18.4407C15.4793 18.4407 15.3307 17.4185 15.2755 15.8436V13.5056M33.5282 31.8159C33.5282 31.8159 34.4182 34.8664 35.9898 35.9015M18.0102 35.9015L4.43963 43.2774C3.41008 43.9555 2.78125 45.1688 2.78125 46.4771C2.78125 48.5435 4.32263 50.2186 6.22402 50.2186H47.776C49.6774 50.2186 51.2188 48.5435 51.2188 46.4771C51.2188 45.1688 50.5899 43.9555 49.5604 43.2774L35.9898 35.9015M18.0102 35.9015C19.5818 34.8664 20.4718 31.8159 20.4718 31.8159M18.0102 35.9015C24.6959 41.3192 28.6221 41.5077 35.9898 35.9015" stroke="#F1F1F1" stroke-width="2" stroke-linecap="round" stroke-linejoin="round"/>
<path d="M22.375 19.75C22.375 19.7845 22.347 19.8125 22.3125 19.8125C22.278 19.8125 22.25 19.7845 22.25 19.75C22.25 19.7155 22.278 19.6875 22.3125 19.6875C22.347 19.6875 22.375 19.7155 22.375 19.75ZM31.75 19.75C31.75 19.7845 31.722 19.8125 31.6875 19.8125C31.653 19.8125 31.625 19.7845 31.625 19.75C31.625 19.7155 31.653 19.6875 31.6875 19.6875C31.722 19.6875 31.75 19.7155 31.75 19.75Z" fill="#F1F1F1" stroke="#F1F1F1" stroke-width="3"/>
<path d="M14.4375 5.625H39.5625V12H14.4375V5.625Z" fill="#F1F1F1" stroke="#F1F1F1" stroke-width="3"/>
<path d="M5.125 20.5312V7.13839C5.125 4.17973 7.22367 1.78125 9.8125 1.78125M26.9996 1.78125H9.42149C8.77428 1.78125 8.24962 2.30592 8.24962 2.95312C8.24962 3.60033 8.77428 4.125 9.42149 4.125H26.9996M26.9996 1.78125H44.5777C45.225 1.78125 45.7496 2.30592 45.7496 2.95312C45.7496 3.60033 45.225 4.125 44.5777 4.125H26.9996M26.9996 1.78125V4.125" stroke="#F1F1F1" stroke-width="3" stroke-linecap="round" stroke-linejoin="round"/>
<path d="M2.4302 31.5094L5.12447 18.1875L7.81826 31.5094C7.97129 32.1351 7.2758 32.6226 6.73983 32.2653L6.6073 32.1769C6.26528 31.9489 5.8006 32.1286 5.7009 32.5274C5.55082 33.1277 4.69764 33.1277 4.54756 32.5274C4.44786 32.1286 3.98318 31.9489 3.64116 32.1769L3.50863 32.2653C2.97266 32.6226 2.27717 32.1351 2.4302 31.5094Z" fill="#F1F1F1" stroke="#F1F1F1" stroke-width="3" stroke-linejoin="round"/>
</svg>
