<svg width="52" height="52" viewBox="0 0 52 52" fill="none" xmlns="http://www.w3.org/2000/svg">
<path d="M5.22402 50.2186H6.12606M45.8739 50.2186H6.12606M45.8739 50.2186V40.3571V24.4374H6.12606V40.3571V47.8749M45.8739 50.2186H51V47.8749H49.9705M45.8739 50.2186V47.8749H49.9705M14.2755 13.5056V15.8436C14.3307 17.4185 14.4793 18.4407 14.4793 18.4407C12.2825 18.4407 11.7875 22.2606 13.0879 24.4374M37.7245 13.5056V15.8436C37.6693 17.4185 37.5207 18.4407 37.5207 18.4407C39.7175 18.4407 40.2125 22.2606 38.9121 24.4374M6.12606 50.2186H1V47.8749H2.02953M6.12606 50.2186V47.8749M6.12606 41.8173L3.43963 43.2774C2.41008 43.9555 1.78125 45.1688 1.78125 46.4771C1.78125 46.9713 1.8694 47.443 2.02953 47.8749M45.8739 41.8173L48.5604 43.2774C49.5899 43.9555 50.2188 45.1688 50.2188 46.4771C50.2188 46.9713 50.1306 47.443 49.9705 47.8749M6.12606 47.8749H2.02953" stroke="#F1F1F1" stroke-width="2" stroke-linecap="round" stroke-linejoin="round"/>
<path d="M19.7498 36.9375C19.7498 33.4857 22.548 30.6875 25.9998 30.6875C29.4515 30.6875 32.2498 33.4857 32.2498 36.9375C32.2498 40.3893 29.4515 43.1875 25.9998 43.1875C22.548 43.1875 19.7498 40.3893 19.7498 36.9375Z" fill="#F1F1F1"/>
<path d="M22.8751 16.625C31.3742 14.2425 32.398 11.3962 34.5939 6.46875L34.6132 6.57623C35.5776 11.9239 36.1243 14.9562 40.0626 16.625C40.0626 16.625 42.4064 1.78125 26.7814 1.78125C11.1564 1.78125 11.9376 16.625 11.9376 16.625C17.225 15.9454 19.561 14.6707 22.8751 11.1562V16.625Z" fill="#F1F1F1"/>
<path d="M22.8751 16.625H21.8751C21.8751 16.9379 22.0216 17.2328 22.2709 17.4218C22.5203 17.6109 22.8437 17.6723 23.145 17.5879L22.8751 16.625ZM34.5939 6.46875L35.578 6.29127C35.5001 5.85935 35.1497 5.5287 34.714 5.47599C34.2783 5.42328 33.8591 5.66082 33.6805 6.06171L34.5939 6.46875ZM34.6132 6.57623L35.5974 6.39877L35.5974 6.39876L34.6132 6.57623ZM40.0626 16.625L39.6724 17.5457C39.9558 17.6658 40.2788 17.6487 40.5479 17.4994C40.817 17.35 41.0024 17.085 41.0504 16.781L40.0626 16.625ZM11.9376 16.625L10.939 16.6776C10.9536 16.9555 11.0834 17.2147 11.2971 17.3929C11.5108 17.5712 11.7891 17.6523 12.0651 17.6168L11.9376 16.625ZM22.8751 11.1562H23.8751C23.8751 10.7464 23.6251 10.3781 23.2442 10.2269C22.8633 10.0756 22.4287 10.172 22.1476 10.4702L22.8751 11.1562ZM20.7498 36.9375C20.7498 34.038 23.1003 31.6875 25.9998 31.6875V29.6875C21.9957 29.6875 18.7498 32.9334 18.7498 36.9375H20.7498ZM25.9998 31.6875C28.8993 31.6875 31.2498 34.038 31.2498 36.9375H33.2498C33.2498 32.9334 30.0038 29.6875 25.9998 29.6875V31.6875ZM31.2498 36.9375C31.2498 39.837 28.8993 42.1875 25.9998 42.1875V44.1875C30.0038 44.1875 33.2498 40.9416 33.2498 36.9375H31.2498ZM25.9998 42.1875C23.1003 42.1875 20.7498 39.837 20.7498 36.9375H18.7498C18.7498 40.9416 21.9957 44.1875 25.9998 44.1875V42.1875ZM23.145 17.5879C27.4728 16.3747 30.0449 15.0048 31.8124 13.2011C33.558 11.4199 34.4336 9.28502 35.5073 6.87579L33.6805 6.06171C32.5583 8.5799 31.8241 10.3318 30.384 11.8013C28.9659 13.2483 26.7765 14.4928 22.6052 15.6621L23.145 17.5879ZM33.6097 6.64623L33.6291 6.75371L35.5974 6.39876L35.578 6.29127L33.6097 6.64623ZM33.6291 6.75369C34.1032 9.38283 34.4998 11.6214 35.3136 13.3969C36.1671 15.2588 37.4734 16.6139 39.6724 17.5457L40.4528 15.7043C38.7135 14.9673 37.7773 13.9718 37.1317 12.5635C36.4466 11.0687 36.0876 9.11734 35.5974 6.39877L33.6291 6.75369ZM40.0626 16.625C41.0504 16.781 41.0505 16.7804 41.0506 16.7798C41.0506 16.7795 41.0507 16.7789 41.0508 16.7783C41.051 16.7772 41.0512 16.7758 41.0514 16.7743C41.0519 16.7711 41.0525 16.7671 41.0532 16.7621C41.0547 16.7523 41.0567 16.7388 41.0591 16.722C41.0638 16.6882 41.0702 16.6406 41.0777 16.5802C41.0925 16.4593 41.1114 16.2867 41.1294 16.0696C41.1653 15.6359 41.1974 15.0223 41.1845 14.2881C41.1589 12.8265 40.9543 10.8513 40.2197 8.85742C39.482 6.85508 38.2019 4.81545 36.0238 3.28278C33.8449 1.74942 30.8493 0.78125 26.7814 0.78125V2.78125C30.526 2.78125 33.0968 3.66855 34.8729 4.91839C36.6499 6.16892 37.7135 7.84023 38.343 9.54883C38.9756 11.2658 39.1616 13.0016 39.1848 14.3232C39.1964 14.9806 39.1675 15.5267 39.1362 15.9048C39.1206 16.0936 39.1044 16.2398 39.0926 16.3364C39.0866 16.3847 39.0818 16.4205 39.0786 16.4429C39.0771 16.4541 39.0759 16.4619 39.0752 16.4663C39.0749 16.4685 39.0747 16.4699 39.0746 16.4703C39.0746 16.4706 39.0746 16.4706 39.0746 16.4703C39.0747 16.4702 39.0747 16.4699 39.0747 16.4699C39.0748 16.4695 39.0748 16.469 40.0626 16.625ZM26.7814 0.78125C22.7111 0.78125 19.633 1.75016 17.3222 3.26412C15.0145 4.77608 13.5372 6.78879 12.5964 8.77504C11.6584 10.7553 11.2466 12.7221 11.0671 14.1838C10.9771 14.9172 10.9446 15.5306 10.9348 15.9646C10.9299 16.1818 10.9307 16.3547 10.9328 16.4758C10.9339 16.5364 10.9353 16.5841 10.9365 16.618C10.9371 16.635 10.9376 16.6485 10.9381 16.6585C10.9383 16.6635 10.9385 16.6675 10.9386 16.6707C10.9387 16.6723 10.9388 16.6737 10.9389 16.6748C10.9389 16.6754 10.9389 16.6761 10.9389 16.6764C10.939 16.677 10.939 16.6776 11.9376 16.625C12.9362 16.5724 12.9363 16.5729 12.9363 16.5733C12.9363 16.5734 12.9363 16.5737 12.9363 16.5738C12.9363 16.5741 12.9363 16.5741 12.9363 16.5739C12.9363 16.5735 12.9362 16.5722 12.9361 16.57C12.9359 16.5657 12.9356 16.5579 12.9352 16.5468C12.9344 16.5245 12.9333 16.4889 12.9325 16.4408C12.9308 16.3445 12.93 16.1984 12.9343 16.0097C12.9428 15.632 12.9714 15.0857 13.0522 14.4276C13.2145 13.1061 13.584 11.3619 14.4038 9.63121C15.2208 7.90652 16.4779 6.20829 18.4183 4.93705C20.3555 3.66781 23.0391 2.78125 26.7814 2.78125V0.78125ZM12.0651 17.6168C14.7643 17.2699 16.7966 16.7611 18.5993 15.8452C20.4043 14.9283 21.9085 13.6389 23.6027 11.8423L22.1476 10.4702C20.5277 12.188 19.2068 13.2933 17.6934 14.0622C16.1777 14.8322 14.3983 15.3005 11.8101 15.6332L12.0651 17.6168ZM21.8751 11.1562V16.625H23.8751V11.1562H21.8751Z" fill="#F1F1F1"/>
<path d="M21.875 19.75C21.875 20.0607 21.6232 20.3125 21.3125 20.3125C21.0018 20.3125 20.75 20.0607 20.75 19.75C20.75 19.4393 21.0018 19.1875 21.3125 19.1875C21.6232 19.1875 21.875 19.4393 21.875 19.75ZM31.25 19.75C31.25 20.0607 30.9982 20.3125 30.6875 20.3125C30.3768 20.3125 30.125 20.0607 30.125 19.75C30.125 19.4393 30.3768 19.1875 30.6875 19.1875C30.9982 19.1875 31.25 19.4393 31.25 19.75Z" fill="#F1F1F1" stroke="#F1F1F1" stroke-width="2"/>
</svg>
