<svg width="52" height="52" viewBox="0 0 52 52" fill="none" xmlns="http://www.w3.org/2000/svg">
<path d="M24.4375 19.75C24.4375 22.3388 22.3388 24.4375 19.75 24.4375C17.1612 24.4375 15.0625 22.3388 15.0625 19.75C15.0625 19.2021 15.1565 18.6762 15.3292 18.1875C15.9727 16.3669 17.709 15.0625 19.75 15.0625C21.791 15.0625 23.5273 16.3669 24.1708 18.1875C24.3435 18.6762 24.4375 19.2021 24.4375 19.75Z" fill="#F1F1F1"/>
<path d="M36.9375 19.75C36.9375 22.3388 34.8388 24.4375 32.25 24.4375C29.6612 24.4375 27.5625 22.3388 27.5625 19.75C27.5625 19.2021 27.6565 18.6762 27.8292 18.1875C28.4727 16.3669 30.209 15.0625 32.25 15.0625C34.291 15.0625 36.0273 16.3669 36.6708 18.1875C36.8435 18.6762 36.9375 19.2021 36.9375 19.75Z" fill="#F1F1F1"/>
<path d="M15.5034 25.9119L16.459 25.6171C16.3296 25.1979 15.9421 24.9119 15.5034 24.9119V25.9119ZM14.4793 18.4414V19.4414C14.7696 19.4414 15.0456 19.3152 15.2356 19.0956C15.4255 18.8761 15.5107 18.5848 15.4689 18.2975L14.4793 18.4414ZM36.4966 25.9119V24.9119C36.0579 24.9119 35.6704 25.1979 35.541 25.6171L36.4966 25.9119ZM32.5282 31.8165L31.8862 31.0499V31.0499L32.5282 31.8165ZM37.5207 18.4414L36.5311 18.2975C36.4893 18.5848 36.5745 18.8761 36.7644 19.0956C36.9544 19.3152 37.2304 19.4414 37.5207 19.4414V18.4414ZM3.43963 43.278L2.96209 42.3994L2.92491 42.4196L2.88957 42.4429L3.43963 43.278ZM48.5604 43.278L49.1104 42.4429L49.0751 42.4196L49.0379 42.3994L48.5604 43.278ZM15.2749 15.8093C15.2556 15.2574 14.7925 14.8256 14.2405 14.8449C13.6886 14.8643 13.2568 15.3274 13.2761 15.8793L15.2749 15.8093ZM38.7239 15.8793C38.7432 15.3274 38.3114 14.8643 37.7594 14.8449C37.2075 14.8256 36.7444 15.2574 36.7251 15.8093L38.7239 15.8793ZM11.4328 38.9336L11.9104 39.8122L11.4328 38.9336ZM24.1708 18.1875L23.2279 18.5207L24.1708 18.1875ZM27.8292 18.1875L28.7721 18.5207L27.8292 18.1875ZM15.3292 18.1875L16.2721 18.5207L15.3292 18.1875ZM36.6708 18.1875L35.7279 18.5207L36.6708 18.1875ZM26 42.3306L26.0158 41.3308L26 42.3306ZM14.5478 26.2066C15.0162 27.7253 16.1303 29.9475 17.9825 31.8057C19.8515 33.6806 22.505 35.2124 26 35.2124V33.2124C23.1458 33.2124 20.9776 31.9773 19.399 30.3937C17.8036 28.7933 16.8439 26.8653 16.459 25.6171L14.5478 26.2066ZM15.5034 24.9119C14.916 24.9119 14.459 24.6437 14.0963 24.1514C13.7153 23.6342 13.464 22.8898 13.3956 22.0913C13.3268 21.2891 13.4525 20.5493 13.6987 20.0536C13.9343 19.5796 14.2031 19.4414 14.4793 19.4414V17.4414C13.2194 17.4414 12.3682 18.2369 11.9077 19.1636C11.4579 20.0687 11.3116 21.1965 11.4029 22.262C11.4944 23.331 11.8352 24.4542 12.4862 25.3378C13.1555 26.2462 14.1706 26.9119 15.5034 26.9119V24.9119ZM35.541 25.6171C35.0987 27.0514 33.9071 29.3575 31.8862 31.0499L33.1703 32.5832C35.5417 30.5973 36.9193 27.9344 37.4522 26.2066L35.541 25.6171ZM31.8862 31.0499C30.3901 32.3028 28.4512 33.2124 26 33.2124V35.2124C28.991 35.2124 31.372 34.0892 33.1703 32.5832L31.8862 31.0499ZM36.4966 26.9119C37.8294 26.9119 38.8445 26.2462 39.5138 25.3378C40.1648 24.4542 40.5056 23.331 40.5971 22.262C40.6884 21.1965 40.5421 20.0687 40.0923 19.1636C39.6318 18.2369 38.7806 17.4414 37.5207 17.4414V19.4414C37.7969 19.4414 38.0657 19.5796 38.3013 20.0536C38.5475 20.5493 38.6732 21.2891 38.6045 22.0912C38.536 22.8898 38.2847 23.6342 37.9037 24.1514C37.541 24.6437 37.084 24.9119 36.4966 24.9119V26.9119ZM0.78125 46.4778C0.78125 49.0165 2.69363 51.2193 5.22402 51.2193V49.2193C3.95163 49.2193 2.78125 48.0719 2.78125 46.4778H0.78125ZM2.88957 42.4429C1.5592 43.3192 0.78125 44.8577 0.78125 46.4778H2.78125C2.78125 45.4812 3.26097 44.5931 3.98969 44.1132L2.88957 42.4429ZM19.4718 31.8165C18.5118 31.5365 18.5118 31.5363 18.5119 31.5361C18.5119 31.5361 18.5119 31.536 18.512 31.5359C18.512 31.5357 18.512 31.5356 18.512 31.5356C18.5121 31.5355 18.5121 31.5355 18.512 31.5358C18.5118 31.5363 18.5115 31.5375 18.5109 31.5394C18.5098 31.5432 18.5078 31.5497 18.505 31.5589C18.4994 31.5773 18.4905 31.6061 18.4782 31.6442C18.4538 31.7204 18.4164 31.8332 18.3665 31.9728C18.2662 32.2533 18.1177 32.6361 17.9252 33.0461C17.5159 33.9177 16.9976 34.7131 16.4602 35.0671L17.5603 36.7373C18.5944 36.0562 19.3069 34.8088 19.7355 33.8963C19.9619 33.4143 20.1341 32.9697 20.2498 32.6459C20.3079 32.4834 20.3523 32.3497 20.3827 32.2551C20.3979 32.2077 20.4096 32.17 20.4178 32.1432C20.4219 32.1298 20.4251 32.1191 20.4274 32.1113C20.4286 32.1074 20.4295 32.1042 20.4302 32.1017C20.4306 32.1005 20.4309 32.0995 20.4312 32.0986C20.4313 32.0982 20.4314 32.0978 20.4315 32.0975C20.4315 32.0973 20.4316 32.0971 20.4316 32.097C20.4317 32.0968 20.4317 32.0966 19.4718 31.8165ZM34.5122 36.7808L48.0828 44.1567L49.0379 42.3994L35.4673 35.0236L34.5122 36.7808ZM49.2188 46.4778C49.2188 48.0719 48.0484 49.2193 46.776 49.2193V51.2193C49.3064 51.2193 51.2188 49.0165 51.2188 46.4778H49.2188ZM48.0103 44.1132C48.739 44.5931 49.2188 45.4812 49.2188 46.4778H51.2188C51.2188 44.8577 50.4408 43.3192 49.1104 42.4429L48.0103 44.1132ZM32.5282 31.8165C31.5683 32.0966 31.5683 32.0968 31.5684 32.097C31.5684 32.0971 31.5685 32.0973 31.5685 32.0975C31.5686 32.0978 31.5687 32.0982 31.5688 32.0986C31.5691 32.0995 31.5694 32.1005 31.5698 32.1017C31.5705 32.1042 31.5714 32.1074 31.5726 32.1113C31.5749 32.1191 31.5781 32.1298 31.5822 32.1432C31.5904 32.17 31.6021 32.2077 31.6173 32.2551C31.6477 32.3497 31.6921 32.4834 31.7502 32.6459C31.8659 32.9697 32.0381 33.4143 32.2645 33.8963C32.6931 34.8088 33.4056 36.0562 34.4397 36.7373L35.5398 35.0671C35.0024 34.7131 34.4841 33.9177 34.0748 33.0461C33.8823 32.6361 33.7338 32.2533 33.6335 31.9728C33.5836 31.8332 33.5462 31.7204 33.5218 31.6442C33.5095 31.6061 33.5006 31.5773 33.495 31.5589C33.4922 31.5497 33.4902 31.5432 33.4891 31.5394C33.4885 31.5375 33.4882 31.5363 33.488 31.5358C33.4879 31.5355 33.4879 31.5355 33.488 31.5356C33.488 31.5356 33.488 31.5357 33.488 31.5359C33.4881 31.536 33.4881 31.5361 33.4881 31.5361C33.4882 31.5363 33.4882 31.5365 32.5282 31.8165ZM14.4793 18.4414C15.4689 18.2975 15.4689 18.2976 15.4689 18.2976C15.4689 18.2977 15.4689 18.2977 15.4689 18.2978C15.469 18.2978 15.469 18.2979 15.469 18.2979C15.469 18.298 15.469 18.2981 15.469 18.298C15.469 18.298 15.4689 18.2977 15.4689 18.2971C15.4687 18.296 15.4684 18.2939 15.468 18.2909C15.4671 18.2848 15.4657 18.2748 15.4639 18.2611C15.4602 18.2337 15.4547 18.1914 15.4478 18.1351C15.4339 18.0224 15.4146 17.8538 15.3934 17.6365C15.351 17.2016 15.3017 16.5732 15.2749 15.8093L13.2761 15.8793C13.3045 16.6902 13.357 17.3604 13.4028 17.8303C13.4257 18.0654 13.4469 18.2508 13.4627 18.379C13.4706 18.4431 13.4771 18.493 13.4817 18.5276C13.4841 18.545 13.4859 18.5585 13.4873 18.5682C13.488 18.573 13.4885 18.5768 13.4889 18.5797C13.4891 18.5811 13.4893 18.5823 13.4894 18.5832C13.4895 18.5837 13.4895 18.5841 13.4896 18.5844C13.4896 18.5846 13.4896 18.5848 13.4897 18.5849C13.4897 18.585 13.4897 18.5851 13.4897 18.5851C13.4897 18.5852 13.4897 18.5853 14.4793 18.4414ZM37.5207 18.4414C38.5103 18.5853 38.5103 18.5852 38.5103 18.5851C38.5103 18.5851 38.5103 18.585 38.5103 18.5849C38.5104 18.5848 38.5104 18.5846 38.5104 18.5844C38.5105 18.5841 38.5105 18.5837 38.5106 18.5832C38.5107 18.5823 38.5109 18.5811 38.5111 18.5797C38.5115 18.5768 38.512 18.573 38.5127 18.5682C38.5141 18.5585 38.5159 18.545 38.5183 18.5276C38.5229 18.493 38.5294 18.4431 38.5373 18.379C38.5531 18.2508 38.5743 18.0654 38.5972 17.8303C38.643 17.3604 38.6955 16.6902 38.7239 15.8793L36.7251 15.8093C36.6983 16.5732 36.649 17.2016 36.6066 17.6365C36.5854 17.8538 36.5661 18.0224 36.5522 18.1351C36.5453 18.1914 36.5398 18.2337 36.5361 18.2611C36.5343 18.2748 36.5329 18.2848 36.532 18.2909C36.5316 18.2939 36.5313 18.296 36.5312 18.2971C36.5311 18.2977 36.531 18.298 36.531 18.298C36.531 18.2981 36.531 18.298 36.531 18.2979C36.531 18.2979 36.531 18.2978 36.5311 18.2978C36.5311 18.2977 36.5311 18.2977 36.5311 18.2976C36.5311 18.2976 36.5311 18.2975 37.5207 18.4414ZM16.4809 36.7506C19.8782 38.8703 22.7251 40.0642 25.7409 40.0845C28.7505 40.1047 31.7639 38.9548 35.4959 36.7647L34.4836 35.0398C30.8601 37.1663 28.2249 38.1011 25.7543 38.0845C23.2897 38.068 20.8247 37.1035 17.5396 35.0538L16.4809 36.7506ZM16.5327 35.0236L10.9553 38.055L11.9104 39.8122L17.4878 36.7808L16.5327 35.0236ZM10.9553 38.055L2.96209 42.3994L3.91717 44.1567L11.9104 39.8122L10.9553 38.055ZM23.4375 19.75C23.4375 21.7865 21.7866 23.4375 19.75 23.4375V25.4375C22.8911 25.4375 25.4375 22.8911 25.4375 19.75H23.4375ZM19.75 23.4375C17.7134 23.4375 16.0625 21.7865 16.0625 19.75H14.0625C14.0625 22.8911 16.6089 25.4375 19.75 25.4375V23.4375ZM35.9375 19.75C35.9375 21.7865 34.2865 23.4375 32.25 23.4375V25.4375C35.3911 25.4375 37.9375 22.8911 37.9375 19.75H35.9375ZM32.25 23.4375C30.2134 23.4375 28.5625 21.7865 28.5625 19.75H26.5625C26.5625 22.8911 29.1089 25.4375 32.25 25.4375V23.4375ZM19.75 16.0625C21.354 16.0625 22.7212 17.0872 23.2279 18.5207L25.1136 17.8543C24.3333 15.6466 22.2279 14.0625 19.75 14.0625V16.0625ZM23.2279 18.5207C23.3634 18.9039 23.4375 19.3172 23.4375 19.75H25.4375C25.4375 19.087 25.3237 18.4485 25.1136 17.8543L23.2279 18.5207ZM28.5625 19.75C28.5625 19.3172 28.6366 18.9039 28.7721 18.5207L26.8864 17.8543C26.6763 18.4485 26.5625 19.087 26.5625 19.75H28.5625ZM28.7721 18.5207C29.2788 17.0872 30.646 16.0625 32.25 16.0625V14.0625C29.7721 14.0625 27.6667 15.6466 26.8864 17.8543L28.7721 18.5207ZM24.1708 19.1875H27.8292V17.1875H24.1708V19.1875ZM16.0625 19.75C16.0625 19.3172 16.1366 18.9039 16.2721 18.5207L14.3864 17.8543C14.1763 18.4485 14.0625 19.087 14.0625 19.75H16.0625ZM16.2721 18.5207C16.7788 17.0872 18.146 16.0625 19.75 16.0625V14.0625C17.2721 14.0625 15.1667 15.6466 14.3864 17.8543L16.2721 18.5207ZM32.25 16.0625C33.854 16.0625 35.2212 17.0872 35.7279 18.5207L37.6136 17.8543C36.8333 15.6466 34.7279 14.0625 32.25 14.0625V16.0625ZM35.7279 18.5207C35.8634 18.9039 35.9375 19.3172 35.9375 19.75H37.9375C37.9375 19.087 37.8237 18.4485 37.6136 17.8543L35.7279 18.5207ZM13.0556 38.5093C17.1036 41.6451 21.6408 43.2621 25.9842 43.3305L26.0158 41.3308C22.148 41.2698 18.0221 39.8268 14.2805 36.9282L13.0556 38.5093ZM25.9842 43.3305C30.7071 43.4049 35.1787 41.6449 38.4615 38.0644L36.9874 36.7128C34.117 39.8435 30.207 41.3968 26.0158 41.3308L25.9842 43.3305ZM5.22402 51.2193H26V49.2193H5.22402V51.2193ZM26 51.2193H46.776V49.2193H26V51.2193ZM25 42.3306L25 50.2193H27L27 42.3306H25Z" fill="#F1F1F1"/>
<path d="M23.2042 15.1406C30.8087 12.9963 31.7248 10.4347 33.6894 6C34.5632 10.8732 35.0872 15.1406 39.2812 15.1406C39.2812 15.1406 39.2812 1.78125 26 1.78125C12.7188 1.78125 12.7188 15.8438 12.7188 15.8438C17.4496 15.2321 20.239 13.3818 23.2042 10.2187V15.1406Z" fill="#F1F1F1" stroke="#F1F1F1" stroke-width="3" stroke-linecap="round" stroke-linejoin="round"/>
<path d="M21.3125 19.75C21.3125 20.6129 20.6129 21.3125 19.75 21.3125C18.8871 21.3125 18.1875 20.6129 18.1875 19.75C18.1875 18.8871 18.8871 18.1875 19.75 18.1875C20.6129 18.1875 21.3125 18.8871 21.3125 19.75Z" fill="#F1F1F1"/>
<path d="M33.8125 19.75C33.8125 20.6129 33.1129 21.3125 32.25 21.3125C31.3871 21.3125 30.6875 20.6129 30.6875 19.75C30.6875 18.8871 31.3871 18.1875 32.25 18.1875C33.1129 18.1875 33.8125 18.8871 33.8125 19.75Z" fill="#F1F1F1"/>
</svg>
